<?xml version="1.0" encoding="UTF-8"?>
<svg width="216px" height="35px" viewBox="0 0 216 35" version="1.1" xmlns="http://www.w3.org/2000/svg" xmlns:xlink="http://www.w3.org/1999/xlink">
    <!-- Generator: Sketch 52.6 (67491) - http://www.bohemiancoding.com/sketch -->
    <title>Logo</title>
    <desc>Created with Sketch.</desc>
    <defs>
        <path d="M16.3399028,0.146423197 C15.8783056,0.463545922 8.70805556,7.87772439 1.71445833,15.1715471 C1.15031944,15.7602082 0.5865,16.3488693 0.0284305556,16.9312995 C0.0169305556,16.9427775 0.0115,16.9486805 0,16.9601586 C0.0284305556,17.6642563 0.0852916667,18.3621231 0.165152778,19.0547427 C0.227763889,19.660457 0.324555556,20.2550211 0.421347222,20.8492573 C0.489708333,21.2532854 0.563819444,21.6514105 0.649111111,22.0495356 C0.786152778,22.7073931 0.956736111,23.3534446 1.13913889,23.993921 C1.196,24.19036 1.25286111,24.3920461 1.31547222,24.5884851 C1.75406944,26.0885051 2.31788889,27.5367098 2.97306944,28.9334272 L4.88654167,28.9334272 L17.8773889,28.9275242 C17.4729722,27.5888531 17.2397778,26.053743 17.2397778,24.4150022 C17.2397778,22.1882563 17.6665556,20.1513905 18.3785972,18.552987 C18.259125,18.4375504 18.1569028,18.3047327 18.0767222,18.1489589 C17.7633472,17.5084825 17.7633472,3.26189982 18.3958472,2.8637747 C19.0280278,2.46597753 21.1919444,3.18712838 21.1919444,3.18712838 L22.8952222,1.50214744 C22.8952222,1.50214744 18.7293472,0.0198364625 16.9720833,0.0198364625 C16.6900139,0.0195085176 16.4705556,0.0578780718 16.3399028,0.146423197 M1.7825,17.6816374 L4.03075,15.7693906 L13.7198194,7.52616745 L13.7198194,11.7845321 L2.00483333,19.7703185 C1.90229167,19.0839298 1.82818056,18.3850792 1.7825,17.6816374 M2.23227778,21.1496548 L13.7198194,14.606498 L13.7198194,19.0491677 L2.73923611,23.3649227 C2.54022222,22.6378688 2.36931944,21.8996648 2.23227778,21.1496548 M3.14397222,24.7039217 L13.7198194,21.6340294 L13.7198194,25.7251422 L3.98091667,26.9713328 C3.66754167,26.2331288 3.38834722,25.4713128 3.14397222,24.7039217" id="path-1"></path>
        <path d="M13.005367,0.000642201835 C12.9096398,0.00160550459 12.8265681,0.00642201835 12.7564764,0.0160550459 C10.4291709,0.329770642 1.44185185,8.47931193 1.44185185,8.47931193 L1.44185185,19.4102294 C2.11940537,18.8357798 2.8751631,18.505367 3.67602616,18.505367 C6.5319402,18.505367 8.84626572,22.5859174 8.84626572,27.6191743 C8.84626572,28.9976606 8.66779137,30.2997248 8.35659701,31.4711009 C12.6406303,31.5902294 33.4455471,31.7327982 34.1811859,31.5173394 C34.9839959,31.2826147 34.9839959,30.3421101 34.9839959,30.3421101 L15.3287785,29.9943578 L15.729859,28.1920183 L34.9839959,29.1665596 L34.9839959,22.7377982 C34.9839959,22.075367 34.4634998,21.5233945 33.7872443,21.4688073 L16.2967584,20.0594954 L13.9496585,16.6940367 C13.678702,16.3055046 13.2114237,16.0942202 12.7331125,16.144633 L4.33183826,17.0205963 L4.33183826,13.7293119 L13.7913031,9.65807339 C14.2602039,9.45610092 14.8069844,9.54119266 15.1882705,9.87577982 L17.4263388,11.8386697 L33.6249949,13.961789 C34.007579,14.0118807 34.3122834,13.6577064 34.1909208,13.3 C33.6198029,11.62 32.1410618,7.61490826 30.4101852,5.65844037 C28.3934251,3.37830275 15.9005454,0.0237614679 13.0634523,0.000642201835 L13.005367,0.000642201835 Z M17.78491,26.6815596 C16.8798828,26.6407798 16.1799388,25.8919725 16.2217992,25.0079817 L16.2892949,23.5745872 L18.5046483,23.6738073 C20.2202735,23.7508716 21.5471492,25.1717431 21.468296,26.8469266 L17.78491,26.6815596 Z M32.4194818,27.4499541 L29.2835253,27.2845872 C29.3367431,25.6090826 30.5708121,24.3134404 32.0394937,24.3901835 L33.9348913,24.4897248 L33.8771305,25.9237615 C33.8427336,26.7817431 33.2258614,27.4515596 32.4847061,27.4515596 C32.4629647,27.4515596 32.4412232,27.4509174 32.4194818,27.4499541 Z M0.0179510703,27.6191743 C0.0179510703,31.1808257 1.65667006,34.0681651 3.67635066,34.0681651 C5.69732926,34.0681651 7.33475025,31.1808257 7.33475025,27.6191743 C7.33475025,24.0572018 5.69732926,21.1701835 3.67635066,21.1701835 C1.65667006,21.1701835 0.0179510703,24.0572018 0.0179510703,27.6191743 Z M3.310316,23.793578 C0.222060822,27.7029817 3.310316,31.6791743 3.310316,31.6791743 C-1.61070846,27.2062385 3.310316,23.793578 3.310316,23.793578 Z M24.9076589,35 C26.0644971,35 27.0944563,34.0505046 27.7648709,32.5727982 C26.0167958,32.5747248 24.049035,32.5708716 22.0459038,32.5622018 C22.7163184,34.0456881 23.7482246,35 24.9076589,35 Z" id="path-3"></path>
        <polygon id="path-5" points="0.120860888 0.0301680978 151.997751 0.0301680978 151.997751 13.8763697 0.120860888 13.8763697"></polygon>
    </defs>
    <g id="Design" stroke="none" stroke-width="1" fill="none" fill-rule="evenodd">
        <g id="Kamiondzija---Moje-ponude" transform="translate(-405.000000, -28.000000)">
            <g id="Header---Green-state">
                <g id="Navigation">
                    <g id="Logo" transform="translate(405.000000, 28.000000)">
                        <g id="Group-3" transform="translate(0.000000, 4.000000)">
                            <mask id="mask-2" fill="white">
                                <use xlink:href="#path-1"></use>
                            </mask>
                            <g id="Clip-2"></g>
                            <path d="M16.3399028,0.146423197 C15.8783056,0.463545922 8.70805556,7.87772439 1.71445833,15.1715471 C1.15031944,15.7602082 0.5865,16.3488693 0.0284305556,16.9312995 C0.0169305556,16.9427775 0.0115,16.9486805 0,16.9601586 C0.0284305556,17.6642563 0.0852916667,18.3621231 0.165152778,19.0547427 C0.227763889,19.660457 0.324555556,20.2550211 0.421347222,20.8492573 C0.489708333,21.2532854 0.563819444,21.6514105 0.649111111,22.0495356 C0.786152778,22.7073931 0.956736111,23.3534446 1.13913889,23.993921 C1.196,24.19036 1.25286111,24.3920461 1.31547222,24.5884851 C1.75406944,26.0885051 2.31788889,27.5367098 2.97306944,28.9334272 L4.88654167,28.9334272 L17.8773889,28.9275242 C17.4729722,27.5888531 17.2397778,26.053743 17.2397778,24.4150022 C17.2397778,22.1882563 17.6665556,20.1513905 18.3785972,18.552987 C18.259125,18.4375504 18.1569028,18.3047327 18.0767222,18.1489589 C17.7633472,17.5084825 17.7633472,3.26189982 18.3958472,2.8637747 C19.0280278,2.46597753 21.1919444,3.18712838 21.1919444,3.18712838 L22.8952222,1.50214744 C22.8952222,1.50214744 18.7293472,0.0198364625 16.9720833,0.0198364625 C16.6900139,0.0195085176 16.4705556,0.0578780718 16.3399028,0.146423197 M1.7825,17.6816374 L4.03075,15.7693906 L13.7198194,7.52616745 L13.7198194,11.7845321 L2.00483333,19.7703185 C1.90229167,19.0839298 1.82818056,18.3850792 1.7825,17.6816374 M2.23227778,21.1496548 L13.7198194,14.606498 L13.7198194,19.0491677 L2.73923611,23.3649227 C2.54022222,22.6378688 2.36931944,21.8996648 2.23227778,21.1496548 M3.14397222,24.7039217 L13.7198194,21.6340294 L13.7198194,25.7251422 L3.98091667,26.9713328 C3.66754167,26.2331288 3.38834722,25.4713128 3.14397222,24.7039217" id="Fill-1" fill="#B2BEC4" mask="url(#mask-2)"></path>
                        </g>
                        <g id="Group-6" transform="translate(19.000000, 0.000000)">
                            <mask id="mask-4" fill="white">
                                <use xlink:href="#path-3"></use>
                            </mask>
                            <g id="Clip-5"></g>
                            <path d="M13.005367,0.000642201835 C12.9096398,0.00160550459 12.8265681,0.00642201835 12.7564764,0.0160550459 C10.4291709,0.329770642 1.44185185,8.47931193 1.44185185,8.47931193 L1.44185185,19.4102294 C2.11940537,18.8357798 2.8751631,18.505367 3.67602616,18.505367 C6.5319402,18.505367 8.84626572,22.5859174 8.84626572,27.6191743 C8.84626572,28.9976606 8.66779137,30.2997248 8.35659701,31.4711009 C12.6406303,31.5902294 33.4455471,31.7327982 34.1811859,31.5173394 C34.9839959,31.2826147 34.9839959,30.3421101 34.9839959,30.3421101 L15.3287785,29.9943578 L15.729859,28.1920183 L34.9839959,29.1665596 L34.9839959,22.7377982 C34.9839959,22.075367 34.4634998,21.5233945 33.7872443,21.4688073 L16.2967584,20.0594954 L13.9496585,16.6940367 C13.678702,16.3055046 13.2114237,16.0942202 12.7331125,16.144633 L4.33183826,17.0205963 L4.33183826,13.7293119 L13.7913031,9.65807339 C14.2602039,9.45610092 14.8069844,9.54119266 15.1882705,9.87577982 L17.4263388,11.8386697 L33.6249949,13.961789 C34.007579,14.0118807 34.3122834,13.6577064 34.1909208,13.3 C33.6198029,11.62 32.1410618,7.61490826 30.4101852,5.65844037 C28.3934251,3.37830275 15.9005454,0.0237614679 13.0634523,0.000642201835 L13.005367,0.000642201835 Z M17.78491,26.6815596 C16.8798828,26.6407798 16.1799388,25.8919725 16.2217992,25.0079817 L16.2892949,23.5745872 L18.5046483,23.6738073 C20.2202735,23.7508716 21.5471492,25.1717431 21.468296,26.8469266 L17.78491,26.6815596 Z M32.4194818,27.4499541 L29.2835253,27.2845872 C29.3367431,25.6090826 30.5708121,24.3134404 32.0394937,24.3901835 L33.9348913,24.4897248 L33.8771305,25.9237615 C33.8427336,26.7817431 33.2258614,27.4515596 32.4847061,27.4515596 C32.4629647,27.4515596 32.4412232,27.4509174 32.4194818,27.4499541 Z M0.0179510703,27.6191743 C0.0179510703,31.1808257 1.65667006,34.0681651 3.67635066,34.0681651 C5.69732926,34.0681651 7.33475025,31.1808257 7.33475025,27.6191743 C7.33475025,24.0572018 5.69732926,21.1701835 3.67635066,21.1701835 C1.65667006,21.1701835 0.0179510703,24.0572018 0.0179510703,27.6191743 Z M3.310316,23.793578 C0.222060822,27.7029817 3.310316,31.6791743 3.310316,31.6791743 C-1.61070846,27.2062385 3.310316,23.793578 3.310316,23.793578 Z M24.9076589,35 C26.0644971,35 27.0944563,34.0505046 27.7648709,32.5727982 C26.0167958,32.5747248 24.049035,32.5708716 22.0459038,32.5622018 C22.7163184,34.0456881 23.7482246,35 24.9076589,35 Z" id="Fill-4" fill="#B2BEC4" mask="url(#mask-4)"></path>
                        </g>
                        <g id="Group-9" transform="translate(64.000000, 11.000000)">
                            <mask id="mask-6" fill="white">
                                <use xlink:href="#path-5"></use>
                            </mask>
                            <g id="Clip-8"></g>
                            <path d="M151.333546,8.14258223 C150.890721,7.65939962 150.350205,7.29855342 149.713284,7.05942734 C149.075719,6.82122571 148.240523,6.5796344 147.207373,6.33465342 C146.334899,6.12849962 145.640455,5.93806158 145.124041,5.7639556 C144.606984,5.59015777 144.177977,5.33839745 143.835736,5.00990723 C143.493495,4.68110886 143.322535,4.24568984 143.322535,3.70457462 C143.322535,2.98257408 143.634569,2.39277082 144.258315,1.93485668 C144.882383,1.47755886 145.811415,1.24829364 147.046053,1.24829364 C147.690366,1.24829364 148.347533,1.34228005 149.01884,1.52871212 C149.689504,1.71606864 150.319998,1.99648712 150.910967,2.37027571 L151.413884,1.22888005 C150.850552,0.85539962 150.182781,0.561730598 149.411212,0.349105598 C148.639322,0.136480598 147.851364,0.0301680978 147.046053,0.0301680978 C145.891753,0.0301680978 144.925766,0.19780288 144.14777,0.533072446 C143.369132,0.868342011 142.791981,1.31608712 142.416641,1.87692408 C142.040979,2.43776103 141.852988,3.05992027 141.852988,3.74309364 C141.852988,4.58126755 142.077614,5.24533549 142.527186,5.73498929 C142.976759,6.22495125 143.516633,6.58918712 144.14777,6.82738875 C144.778265,7.06651484 145.623423,7.31426918 146.683888,7.5718844 C147.569537,7.77834636 148.260447,7.9687844 148.756937,8.14258223 C149.253427,8.31668821 149.673115,8.56505886 150.015034,8.88707788 C150.357275,9.20971321 150.528556,9.6414344 150.528556,10.1828578 C150.528556,10.8922241 150.212988,11.4687768 149.582493,11.9137485 C148.951356,12.3587203 148.005614,12.580898 146.744303,12.580898 C145.844836,12.580898 144.973005,12.4295953 144.127525,12.1263735 C143.282045,11.8234599 142.604311,11.4271762 142.094645,10.9369061 L141.511068,12.0394746 C142.034231,12.5679556 142.775592,12.9935137 143.734831,13.3158409 C144.694392,13.6381681 145.697656,13.7990235 146.744303,13.7990235 C147.898282,13.7990235 148.870696,13.6347784 149.662831,13.3059801 C150.454645,12.9771817 151.041757,12.5325181 151.424167,11.9716811 C151.806578,11.4108442 151.997783,10.7889931 151.997783,10.1055116 C151.997783,9.28058821 151.77637,8.62607299 151.333546,8.14258223 Z M133.715364,8.17185668 L129.971601,8.17185668 L129.971601,1.38357245 L133.715364,1.38357245 C135.111,1.38357245 136.177571,1.67724147 136.915719,2.26365505 C137.653867,2.85037679 138.022781,3.69194038 138.022781,4.78742136 C138.022781,5.85763386 137.653867,6.68902842 136.915719,7.28191321 C136.177571,7.87541429 135.111,8.17185668 133.715364,8.17185668 Z M138.677055,7.46588005 C139.233639,6.73740832 139.512252,5.84469147 139.512252,4.78742136 C139.512252,3.34372842 139.002265,2.20880397 137.982611,1.38357245 C136.962637,0.558957228 135.553825,0.146033315 133.755855,0.146033315 L128.482129,0.146033315 L128.482129,13.6831583 L129.971601,13.6831583 L129.971601,9.38998223 L133.755855,9.38998223 C134.144692,9.38998223 134.520675,9.37056864 134.88284,9.33174147 L138.10344,13.6831583 L139.733664,13.6831583 L136.291652,9.04177027 C137.325123,8.71975125 138.120151,8.19435179 138.677055,7.46588005 Z M123.61106,10.6084159 C123.141241,10.6084159 122.748548,10.7566371 122.433301,11.0530795 C122.118053,11.3498301 121.96059,11.736561 121.96059,12.2135806 C121.96059,12.6776578 122.121588,13.0613072 122.443584,13.3639127 C122.76558,13.6671344 123.154738,13.8184371 123.61106,13.8184371 C124.06706,13.8184371 124.45654,13.6671344 124.778535,13.3639127 C125.100531,13.0613072 125.261529,12.6776578 125.261529,12.2135806 C125.261529,11.736561 125.103745,11.3498301 124.788497,11.0530795 C124.47325,10.7566371 124.080556,10.6084159 123.61106,10.6084159 Z M116.873893,7.68805777 C116.873893,10.3443295 115.686172,11.6718491 113.311051,11.6718491 C110.922434,11.6718491 109.728286,10.3443295 109.728286,7.68805777 L109.728286,0.146033315 L107.111508,0.146033315 L107.111508,7.78481755 C107.111508,9.74466538 107.654916,11.2499888 108.741732,12.3004795 C109.828869,13.3512784 111.345013,13.8763697 113.291127,13.8763697 C115.236277,13.8763697 116.749529,13.3512784 117.829918,12.3004795 C118.909986,11.2499888 119.45018,9.74466538 119.45018,7.78481755 L119.45018,0.146033315 L116.873893,0.146033315 L116.873893,7.68805777 Z M101.127592,6.96297571 C100.536945,7.43383223 99.6715416,7.66895234 98.5310596,7.66895234 L95.4714571,7.66895234 L95.4714571,2.27320777 L98.5310596,2.27320777 C99.6715416,2.27320777 100.536945,2.50555451 101.127592,2.96963168 C101.717918,3.43370886 102.013241,4.09777679 102.013241,4.96152734 C102.013241,5.82527788 101.717918,6.49273549 101.127592,6.96297571 Z M103.875161,7.59160614 C104.391575,6.85666321 104.650265,5.97997027 104.650265,4.96152734 C104.650265,3.96866103 104.408607,3.11168984 103.925614,2.38938114 C103.442299,1.6673806 102.748176,1.11301484 101.842282,0.726283859 C100.936387,0.33955288 99.8727087,0.146033315 98.6518884,0.146033315 L92.8546791,0.146033315 L92.8546791,13.6831583 L95.4714571,13.6831583 L95.4714571,9.73819418 L98.6518884,9.73819418 C98.8932245,9.73819418 99.0744677,9.73172299 99.1952964,9.7187806 L102.073656,13.6831583 L104.891601,13.6831583 L101.651077,9.23528984 C102.617064,8.87444364 103.358425,8.32654908 103.875161,7.59160614 Z M86.6811653,7.68805777 C86.6811653,10.3443295 85.4937658,11.6718491 83.1186452,11.6718491 C80.7297066,11.6718491 79.5355586,10.3443295 79.5355586,7.68805777 L79.5355586,0.146033315 L76.9191019,0.146033315 L76.9191019,7.78481755 C76.9191019,9.74466538 77.4625099,11.2499888 78.549326,12.3004795 C79.6364634,13.3512784 81.1526072,13.8763697 83.0984,13.8763697 C85.0438715,13.8763697 86.557123,13.3512784 87.6375121,12.3004795 C88.7172584,11.2499888 89.2577742,9.74466538 89.2577742,7.78481755 L89.2577742,0.146033315 L86.6811653,0.146033315 L86.6811653,7.68805777 Z M63.7262732,2.27320777 L68.3961759,2.27320777 L68.3961759,13.6831583 L71.0126326,13.6831583 L71.0126326,2.27320777 L75.6825353,2.27320777 L75.6825353,0.146033315 L63.7262732,0.146033315 L63.7262732,2.27320777 Z M59.0679391,13.6831583 L61.6847171,13.6831583 L61.6847171,0.145725163 L59.0679391,0.145725163 L59.0679391,13.6831583 Z M47.6007763,2.25410234 L52.6125987,2.25410234 L52.6125987,9.25439527 C52.6125987,10.9178007 51.8811992,11.7491953 50.4184,11.7491953 C49.3315839,11.7491953 48.3990173,11.2336567 47.6207002,10.2022714 L46.1312288,11.9236094 C46.6142224,12.5420708 47.2347552,13.0227882 47.9931484,13.3639127 C48.7512203,13.7056534 49.5796685,13.8763697 50.4788144,13.8763697 C52.0354486,13.8763697 53.2164211,13.480086 54.0214106,12.6872105 C54.8267214,11.8943349 55.2290554,10.7048676 55.2290554,9.11911647 L55.2290554,0.146033315 L47.6007763,0.146033315 L47.6007763,2.25410234 Z M42.3283366,9.36101592 C41.9057573,10.0636029 41.3019349,10.6053344 40.5168693,10.9855942 C39.7318038,11.365854 38.822696,11.5559839 37.7895459,11.5559839 L34.3677784,11.5559839 L34.3677784,2.27320777 L37.7895459,2.27320777 C38.822696,2.27320777 39.7318038,2.46364582 40.5168693,2.8439056 C41.3019349,3.22416538 41.9057573,3.7658969 42.3283366,4.46817571 C42.7512372,5.17107082 42.9626875,5.98644147 42.9626875,6.91490397 C42.9626875,7.84275016 42.7512372,8.65842897 42.3283366,9.36101592 Z M41.9157192,0.98728875 C40.7482436,0.426451793 39.4130216,0.146033315 37.9103746,0.146033315 L31.7510004,0.146033315 L31.7510004,13.6831583 L37.9103746,13.6831583 C39.4130216,13.6831583 40.7482436,13.4027398 41.9157192,12.8419029 C43.0831949,12.2810659 43.9890892,11.4881904 44.6330808,10.4632763 C45.2770723,9.43836212 45.5993894,8.25567408 45.5993894,6.91490397 C45.5993894,5.57382571 45.2770723,4.39082951 44.6330808,3.36591538 C43.9890892,2.34100125 43.0831949,1.54812571 41.9157192,0.98728875 Z M19.6337404,8.5776931 L22.2704423,2.6602469 L24.9277108,8.5776931 L19.6337404,8.5776931 Z M21.0023831,0.146033315 L14.6620871,13.6831583 L17.3592034,13.6831583 L18.7480913,10.5501752 L25.7927932,10.5501752 L27.2019264,13.6831583 L29.9395332,13.6831583 L23.578992,0.146033315 L21.0023831,0.146033315 Z M10.0439222,9.31263603 L2.27456913,0.146033315 L0.120860888,0.146033315 L0.120860888,13.6831583 L2.71739366,13.6831583 L2.71739366,4.5165556 L10.4867467,13.6831583 L12.640455,13.6831583 L12.640455,0.146033315 L10.0439222,0.146033315 L10.0439222,9.31263603 Z" id="Fill-7" fill="#B2BEC4" mask="url(#mask-6)"></path>
                        </g>
                    </g>
                </g>
            </g>
        </g>
    </g>
</svg>