<?xml version="1.0" encoding="UTF-8"?>
<svg width="992px" height="273px" viewBox="0 0 992 273" version="1.1" xmlns="http://www.w3.org/2000/svg" xmlns:xlink="http://www.w3.org/1999/xlink">
    <!-- Generator: Sketch 52.2 (67145) - http://www.bohemiancoding.com/sketch -->
    <title>road</title>
    <desc>Created with Sketch.</desc>
    <defs>
        <linearGradient x1="13.0329742%" y1="89.0956779%" x2="101.37473%" y2="0%" id="linearGradient-1">
            <stop stop-color="#E2E2E2" stop-opacity="0" offset="0%"></stop>
            <stop stop-color="#E6E9ED" offset="71.6794593%"></stop>
            <stop stop-color="#F3F3F3" offset="100%"></stop>
        </linearGradient>
    </defs>
    <g id="Design" stroke="none" stroke-width="1" fill="none" fill-rule="evenodd">
        <g id="HIW---Kamiondzija" transform="translate(-502.000000, -848.000000)" fill="url(#linearGradient-1)">
            <g id="Karakteristike-2" transform="translate(405.000000, 437.000000)">
                <path d="M1040.80898,653.493604 L1028.80396,660.35767 C1012.4627,652.304515 994.677292,644.674581 975.447738,637.467869 L986.71386,629.345993 C1005.60551,636.962436 1023.63722,645.01164 1040.80898,653.493604 Z M1059.30371,662.973111 C1069.22579,668.250297 1078.83851,673.683164 1088.14187,679.271712 L1070.45994,683.801822 C1063.12442,679.059525 1055.37295,674.439125 1047.20554,669.94062 L1059.30371,662.973112 Z M956.380086,617.755574 L943.659677,626.367117 C923.138736,619.686842 901.20674,613.42009 877.86369,607.566862 L894.248152,597.50934 C915.823557,603.822917 936.5342,610.571661 956.380103,617.75558 Z M863.393789,588.932525 L844.822769,599.767068 C822.468328,594.800955 798.952335,590.175248 774.27479,585.889945 L797.537595,573.337241 C820.263692,578.146145 842.215757,583.344573 863.393793,588.932526 Z M757.793424,565.470006 L732.611231,579.144463 C701.830579,574.504825 669.415927,570.344047 635.367275,566.66213 L668.576552,551.327125 C699.451415,555.469782 729.190373,560.184076 757.793424,565.470006 Z M627.985403,546.285002 L595.605352,562.603653 C562.896007,559.259272 530.716867,555.314172 499.067932,550.768353 L534.890955,534.79566 C560.293836,538.47933 586.08336,541.727348 612.259525,544.539714 C617.531888,545.106176 622.773847,545.687939 627.985403,546.285002 Z M490.732829,527.88808 L454.830402,543.966573 C428.017921,539.568229 401.598243,534.72484 375.57137,529.436408 L418.462668,514.299243 C442.18109,519.247595 466.271143,523.777207 490.732829,527.88808 Z M375.965838,504.891936 L333.065264,520.325074 C307.891459,514.643247 283.097617,508.530925 258.683739,501.988106 L300.341938,485.324631 C325.098031,492.356219 350.305998,498.878654 375.965838,504.891936 Z M248.996675,469.802866 L203.991839,486.419095 C181.601631,479.663055 159.546588,472.527276 137.826709,465.011757 L190.050173,449.534755 C209.389701,456.639305 229.038535,463.395342 248.996675,469.802866 Z M153.250494,435.44669 L99.3185522,451.158062 C73.0363649,441.3349 47.2635142,430.934663 22,419.957351 L70.1060279,399.11924 C97.1251124,412.012318 124.839934,424.121468 153.250494,435.44669 Z" id="road"></path>
            </g>
        </g>
    </g>
</svg>