<?xml version="1.0" encoding="UTF-8"?>
<svg width="992px" height="273px" viewBox="0 0 992 273" version="1.1" xmlns="http://www.w3.org/2000/svg" xmlns:xlink="http://www.w3.org/1999/xlink">
    <!-- Generator: Sketch 52.2 (67145) - http://www.bohemiancoding.com/sketch -->
    <title>road</title>
    <desc>Created with Sketch.</desc>
    <defs>
        <linearGradient x1="13.0329742%" y1="89.0956779%" x2="101.37473%" y2="0%" id="linearGradient-1">
            <stop stop-color="#E2E2E2" stop-opacity="0" offset="0%"></stop>
            <stop stop-color="#E6E9ED" offset="71.6794593%"></stop>
            <stop stop-color="#F3F3F3" offset="100%"></stop>
        </linearGradient>
    </defs>
    <g id="Design" stroke="none" stroke-width="1" fill="none" fill-rule="evenodd">
        <g id="HIW---Kamiondzija" transform="translate(-501.000000, -1518.000000)" fill="url(#linearGradient-1)">
            <g id="Karakteristike-2" transform="translate(405.000000, 437.000000)">
                <path d="M1039.80898,1335.37436 L1027.80396,1342.23843 C1011.4627,1334.18528 993.677292,1326.55534 974.447738,1319.34863 L985.71386,1311.22675 C1004.60551,1318.8432 1022.63722,1326.8924 1039.80898,1335.37436 Z M1058.30371,1344.85387 C1068.22579,1350.13106 1077.83851,1355.56392 1087.14187,1361.15247 L1069.45994,1365.68258 C1062.12442,1360.94029 1054.37295,1356.31988 1046.20554,1351.82138 L1058.30371,1344.85387 Z M955.380086,1299.63633 L942.659677,1308.24788 C922.138736,1301.5676 900.20674,1295.30085 876.86369,1289.44762 L893.248152,1279.3901 C914.823557,1285.70368 935.5342,1292.45242 955.380103,1299.63634 Z M862.393789,1270.81328 L843.822769,1281.64783 C821.468328,1276.68172 797.952335,1272.05601 773.27479,1267.7707 L796.537595,1255.218 C819.263692,1260.02691 841.215757,1265.22533 862.393793,1270.81329 Z M756.793424,1247.35077 L731.611231,1261.02522 C700.830579,1256.38559 668.415927,1252.22481 634.367275,1248.54289 L667.576552,1233.20789 C698.451415,1237.35054 728.190373,1242.06484 756.793424,1247.35077 Z M626.985403,1228.16576 L594.605352,1244.48441 C561.896007,1241.14003 529.716867,1237.19493 498.067932,1232.64911 L533.890955,1216.67642 C559.293836,1220.36009 585.08336,1223.60811 611.259525,1226.42047 C616.531888,1226.98694 621.773847,1227.5687 626.985403,1228.16576 Z M489.732829,1209.76884 L453.830402,1225.84733 C427.017921,1221.44899 400.598243,1216.6056 374.57137,1211.31717 L417.462668,1196.18 C441.18109,1201.12835 465.271143,1205.65797 489.732829,1209.76884 Z M374.965838,1186.7727 L332.065264,1202.20583 C306.891459,1196.52401 282.097617,1190.41168 257.683739,1183.86887 L299.341938,1167.20539 C324.098031,1174.23698 349.305998,1180.75941 374.965838,1186.7727 Z M247.996675,1151.68363 L202.991839,1168.29986 C180.601631,1161.54381 158.546588,1154.40804 136.826709,1146.89252 L189.050173,1131.41551 C208.389701,1138.52006 228.038535,1145.2761 247.996675,1151.68363 Z M152.250494,1117.32745 L98.3185522,1133.03882 C72.0363649,1123.21566 46.2635142,1112.81542 21,1101.83811 L69.1060279,1081 C96.1251124,1093.89308 123.839934,1106.00223 152.250494,1117.32745 Z" id="road" transform="translate(554.070937, 1223.341291) scale(1, -1) translate(-554.070937, -1223.341291) "></path>
            </g>
        </g>
    </g>
</svg>