<svg xmlns="http://www.w3.org/2000/svg" width="45" height="45" viewBox="0 0 45 45">
    <path fill="#FFF" fill-rule="evenodd" d="M16.721 0a2.59 2.59 0 0 0-.32.02C13.41.425 1.854 10.903 1.854 10.903v14.054c.87-.739 1.843-1.163 2.872-1.163 3.672 0 6.648 5.246 6.648 11.717 0 1.773-.23 3.447-.63 4.953 5.508.153 32.257.336 33.203.06 1.032-.302 1.032-1.512 1.032-1.512l-25.27-.447.515-2.317L44.98 37.5v-8.266c0-.851-.669-1.561-1.538-1.631L20.953 25.79l-3.018-4.327a1.69 1.69 0 0 0-1.564-.707L5.57 21.884v-4.232l12.162-5.234a1.707 1.707 0 0 1 1.796.28l2.877 2.523 20.827 2.73c.492.064.884-.391.728-.851-.735-2.16-2.636-7.31-4.861-9.825C36.506 4.344 20.444.031 16.796.001h-.075zm6.145 34.305c-1.163-.053-2.063-1.015-2.01-2.152l.087-1.843 2.849.128c2.205.099 3.911 1.926 3.81 4.08l-4.736-.213zm18.816.988l-4.032-.213c.069-2.154 1.655-3.82 3.544-3.721l2.437.128-.075 1.844c-.044 1.103-.837 1.964-1.79 1.964l-.084-.002zM.023 35.51c0 4.58 2.107 8.292 4.704 8.292 2.598 0 4.703-3.712 4.703-8.292S7.325 27.22 4.727 27.22C2.13 27.219.023 30.93.023 35.51zm4.233-4.918c-3.97 5.026 0 10.138 0 10.138-6.327-5.75 0-10.138 0-10.138zM32.024 45c1.487 0 2.812-1.22 3.674-3.12-2.248.002-4.778-.003-7.353-.014.862 1.907 2.188 3.134 3.68 3.134z"/>
</svg>
