<svg xmlns="http://www.w3.org/2000/svg" width="195" height="18" viewBox="0 0 195 18">
    <path fill="#FFF" fill-rule="evenodd" d="M194.145 10.469a5.3 5.3 0 0 0-2.079-1.393c-.818-.306-1.889-.616-3.214-.931-1.12-.266-2.01-.51-2.673-.734-.663-.224-1.214-.547-1.653-.97-.439-.422-.658-.982-.658-1.678 0-.928.4-1.687 1.2-2.275.8-.588 1.993-.883 3.577-.883.826 0 1.67.12 2.53.36.86.241 1.67.602 2.428 1.082l.645-1.467c-.723-.48-1.58-.858-2.57-1.131-.99-.274-2-.41-3.033-.41-1.481 0-2.72.215-3.719.646-.998.431-1.739 1.007-2.22 1.728a4.225 4.225 0 0 0-.724 2.4c0 1.077.289 1.931.865 2.56a5.339 5.339 0 0 0 2.08 1.405c.808.308 1.893.626 3.253.957 1.136.266 2.023.51 2.66.734a4.48 4.48 0 0 1 1.613.957c.44.415.66.97.66 1.666 0 .912-.406 1.654-1.214 2.226-.81.572-2.023.857-3.642.857a9.85 9.85 0 0 1-3.357-.584c-1.084-.39-1.954-.899-2.608-1.53l-.748 1.418c.671.68 1.622 1.227 2.853 1.641a12.02 12.02 0 0 0 3.86.622c1.48 0 2.728-.212 3.745-.634 1.015-.423 1.769-.995 2.26-1.716.49-.72.735-1.52.735-2.4 0-1.06-.284-1.901-.852-2.523zm-22.602.038h-4.803V1.779h4.803c1.79 0 3.158.377 4.105 1.131.947.755 1.42 1.837 1.42 3.245 0 1.376-.473 2.445-1.42 3.207-.947.764-2.315 1.145-4.105 1.145zm6.365-.908c.714-.937 1.072-2.084 1.072-3.444 0-1.856-.655-3.315-1.963-4.376-1.308-1.06-3.116-1.591-5.422-1.591h-6.766v17.405h1.91v-5.52h4.856c.499 0 .98-.025 1.445-.075l4.132 5.595h2.092l-4.416-5.968c1.326-.414 2.346-1.09 3.06-2.026zm-19.328 4.04c-.603 0-1.107.191-1.511.572-.404.382-.606.879-.606 1.492 0 .597.206 1.09.62 1.48.412.389.912.584 1.497.584.585 0 1.085-.195 1.498-.585.413-.389.62-.882.62-1.479 0-.613-.203-1.11-.607-1.492-.405-.381-.909-.572-1.511-.572zm-8.643-3.754c0 3.415-1.524 5.122-4.57 5.122-3.065 0-4.597-1.707-4.597-5.122V.188h-3.357v9.821c0 2.52.697 4.455 2.091 5.806 1.395 1.35 3.34 2.026 5.837 2.026 2.495 0 4.436-.675 5.822-2.026 1.386-1.35 2.079-3.286 2.079-5.806V.188h-3.305v9.697zm-20.2-.933c-.759.606-1.869.908-3.332.908h-3.925V2.923h3.925c1.463 0 2.573.298 3.331.895.757.597 1.136 1.45 1.136 2.561 0 1.11-.379 1.969-1.136 2.573zm3.524.809c.662-.945.994-2.072.994-3.382 0-1.276-.31-2.378-.93-3.307-.62-.928-1.51-1.641-2.672-2.138-1.162-.497-2.527-.746-4.093-.746h-7.437v17.405h3.357V12.52h4.08c.31 0 .542-.009.697-.025l3.693 5.097h3.615l-4.157-5.72c1.239-.463 2.19-1.167 2.853-2.112zm-22.058.124c0 3.415-1.523 5.122-4.57 5.122-3.065 0-4.597-1.707-4.597-5.122V.188h-3.357v9.821c0 2.52.697 4.455 2.092 5.806 1.394 1.35 3.34 2.026 5.835 2.026 2.496 0 4.438-.675 5.824-2.026 1.385-1.35 2.078-3.286 2.078-5.806V.188h-3.305v9.697zM81.754 2.923h5.991v14.67h3.357V2.923h5.99V.188H81.755v2.735zm-5.976 14.67h3.357V.187h-3.357v17.406zM61.067 2.898h6.43v9c0 2.14-.939 3.208-2.816 3.208-1.394 0-2.59-.663-3.589-1.989l-1.91 2.213c.62.796 1.415 1.414 2.388 1.852.973.44 2.035.659 3.189.659 1.997 0 3.512-.51 4.545-1.529 1.033-1.02 1.55-2.549 1.55-4.587V.188h-9.787v2.71zm-6.764 9.138c-.542.903-1.317 1.6-2.324 2.088-1.007.49-2.174.734-3.499.734h-4.39V2.923h4.39c1.325 0 2.492.245 3.499.733 1.007.49 1.782 1.186 2.324 2.089.542.904.814 1.952.814 3.146 0 1.193-.272 2.241-.814 3.145zm-.53-10.767C52.276.55 50.563.188 48.635.188h-7.902v17.405h7.902c1.928 0 3.64-.36 5.138-1.082 1.498-.721 2.66-1.74 3.487-3.058.826-1.318 1.24-2.839 1.24-4.562 0-1.725-.414-3.246-1.24-4.563-.827-1.318-1.989-2.338-3.487-3.059zm-28.585 9.76l3.383-7.609 3.409 7.608h-6.792zM26.944.187L18.81 17.593h3.46l1.782-4.028h9.037l1.808 4.028h3.512L30.25.188h-3.305zM12.885 11.973L2.918.188H.155v17.405h3.331V5.807l9.967 11.786h2.763V.188h-3.33v11.785z"/>
</svg>
