<svg xmlns="http://www.w3.org/2000/svg" width="29" height="37" viewBox="0 0 29 37">
    <path fill="#FFF" fill-rule="evenodd" d="M20.602.187c-.582.404-9.622 9.864-18.44 19.17-.712.75-1.422 1.502-2.126 2.245L0 21.639A39.859 39.859 0 0 0 .531 26.6a35.81 35.81 0 0 0 .905 4.012c.072.25.144.508.223.759a38.794 38.794 0 0 0 2.09 5.543H6.16l16.38-.007c-.51-1.708-.804-3.667-.804-5.758 0-2.84.538-5.44 1.436-7.479a1.956 1.956 0 0 1-.38-.515c-.396-.818-.396-18.994.402-19.502.797-.508 3.525.412 3.525.412l2.148-2.15S23.615.027 21.4.027c-.356-.001-.633.048-.798.16M2.247 22.56l2.835-2.44L17.3 9.603v5.433L2.528 25.225a32.542 32.542 0 0 1-.28-2.666m.567 4.425l14.484-8.348v5.668L3.454 29.81a33.87 33.87 0 0 1-.64-2.826m1.15 4.535L17.3 27.602v5.22l-12.28 1.59a33.468 33.468 0 0 1-1.055-2.893"/>
</svg>
